# xmcd
#
# Track frame offsets: 
#        150
#        12240
#        25996
#        39721
#        56345
#        68716
#        80795
#        92340
#        105212
#        115281
#        127071
#        139805
#        152815
#        165564
#
# Disc length: 2377 seconds
#
# Revision: 0
# Processed by: cddbd v1.5.1PL0 Copyright (c) Steve Scherf et al.
# Submitted via: ExactAudioCopy v0.95a5
#
DISCID=b109470e
DTITLE=Various Artist - Bluegrass - Volume 1
DYEAR=2004
DGENRE=Bluegrass
TTITLE0=Lester Flatt and Earl Scruggs/Foggy Mountain Breakdown
TTITLE1=Bill Monroe and His Blue Grass Boys/Blue Moon of Kentucky
TTITLE2=Brown's Ferry Four/Will the Circle Be Unbroken
TTITLE3=The Monroe Brothers/New River Train
TTITLE4=The Blue Sky Boys/Are You From Dixie?
TTITLE5=Arthur Smith Trio/Freight Train Moan
TTITLE6=Bill Monroe and His Blue Grass Boys/Orange Bloosom County
TTITLE7=The Delmore Brothers/Going Back to the Blue Ridge Mountains
TTITLE8=Charlie Monroe's Boys/The Great Speckled Bird
TTITLE9=The Dixon Brothers/Intoxicated Rat
TTITLE10=Arthur Smith Trio/The Paris Waltz
TTITLE11=Gid Tanner and Riley Puckett/On Tanner's Farm
TTITLE12=Uncle Dave Macon/Cumberland Mountain Deer Race
TTITLE13=Bill Monroe and His Blue Grass Boys/Kentucky Waltz
EXTD=
EXTT0=
EXTT1=
EXTT2=
EXTT3=
EXTT4=
EXTT5=
EXTT6=
EXTT7=
EXTT8=
EXTT9=
EXTT10=
EXTT11=
EXTT12=
EXTT13=
PLAYORDER=
